# xmcd CD database file
#
# Track frame offsets:
#	150
#	12978
#	31164
#	48510
#	65413
#	87977
#
# Disc length: 1381 seconds
#
# Revision: 0
# Processed by: cddbd v1.5.2PL0 Copyright (c) Steve Scherf et al.
# Submitted via: CDex 1.51
#
DISCID=44056306
DTITLE=Mike Cullison - Roadhouse Rambler
DYEAR=2011
DGENRE=Country
TTITLE0=Blue Neon Heartache
TTITLE1=Whiskey Memory
TTITLE2=Walkin' Sam
TTITLE3=Drinkin' Songs
TTITLE4=Red Headed Woman
TTITLE5=Who Turned You Loose
EXTD=YEAR: 2011
EXTT0=
EXTT1=
EXTT2=
EXTT3=
EXTT4=
EXTT5=
PLAYORDER=
